<svg width="250" height="186" viewBox="0 0 250 186" fill="none" xmlns="http://www.w3.org/2000/svg">
<path d="M250 172.828H0V173.366H250V172.828Z" fill="#3F3D56"/>
<path d="M156.855 80.6606C156.855 80.6606 145.641 88.8169 151.248 90.6706C156.855 92.5243 160.459 83.9973 160.459 83.9973L156.855 80.6606Z" fill="#E9C1A1"/>
<path d="M157.255 77.6948L154.852 81.4021C154.852 81.4021 158.857 81.4021 159.658 86.9632L162.862 83.2558L157.255 77.6948Z" fill="#CFCCE0"/>
<path d="M210.519 162.223L210.92 173.345L206.114 175.94L204.112 174.828L204.512 162.223H210.519Z" fill="#E9C1A1"/>
<path d="M182.085 159.257L182.886 171.121L171.673 175.57L172.474 169.267C172.474 169.267 175.678 164.447 174.877 159.257H182.085Z" fill="#E9C1A1"/>
<path d="M199.306 69.9093C199.306 69.9093 205.714 85.4803 206.915 95.1194C208.117 104.759 210.119 130.34 210.119 130.34L214.124 163.335L202.91 164.818L198.104 131.452L187.291 98.4561L184.889 131.452L182.886 161.482L172.474 161.852L171.673 130.71L167.267 91.0413L169.67 72.1337L199.306 69.9093Z" fill="#2F2E41"/>
<path d="M205.313 174.087C205.313 174.087 205.97 167.86 210.848 171.344L211.721 170.75L215.726 178.906C215.726 178.906 220.532 185.209 212.121 185.95C203.711 186.692 204.512 178.906 204.512 178.906L203.711 175.57L204.112 173.385L205.313 174.087Z" fill="#2F2E41"/>
<path d="M182.085 166.672C183.071 167.194 183.888 167.95 184.451 168.863C185.015 169.775 185.304 170.811 185.289 171.862C185.289 175.57 184.889 175.94 184.889 175.94L178.881 177.423C178.881 177.423 174.877 177.052 172.474 179.277C170.071 181.501 158.056 182.984 158.056 180.018C158.056 177.053 168.068 172.233 168.068 172.233C168.068 172.233 171.042 167.585 173.159 168.055C175.277 168.526 176.078 169.267 176.078 169.638C176.078 170.008 174.877 172.604 174.877 172.604C174.877 172.604 181.685 171.121 182.085 166.672Z" fill="#2F2E41"/>
<path d="M181.284 24.3085C186.814 24.3085 191.296 20.1589 191.296 15.0401C191.296 9.92123 186.814 5.77161 181.284 5.77161C175.755 5.77161 171.272 9.92123 171.272 15.0401C171.272 20.1589 175.755 24.3085 181.284 24.3085Z" fill="#E9C1A1"/>
<path d="M188.693 17.4499L193.098 26.7183L181.084 42.66C181.084 42.66 180.283 25.2353 177.88 22.2694C175.477 19.3035 188.693 17.4499 188.693 17.4499Z" fill="#E9C1A1"/>
<path d="M183.086 36.7283L185.089 31.9087L186.691 32.2794L188.693 30.7964L191.496 22.6403L195.501 25.2353L200.708 73.802L168.269 74.5435L172.674 40.8064L176.679 31.1673L179.57 27.6294L181.484 33.0209L183.086 36.7283Z" fill="#CFCCE0"/>
<path d="M192.297 57.4896L193.523 23.9533C193.523 23.9533 195.902 24.1231 196.703 25.2354C197.504 26.3476 210.72 28.572 210.72 28.572L208.317 63.0506C208.317 63.0506 218.329 90.4852 214.725 91.9682C211.12 93.4511 204.712 93.0804 204.712 93.0804L192.297 57.4896Z" fill="#575A89"/>
<path d="M172.874 53.226L177.123 30.624L167.668 36.5428L170.071 52.8553L168.068 63.9774C168.068 63.9774 160.459 94.7487 162.862 95.8609C165.265 96.9731 168.068 95.8609 168.068 95.8609L172.874 64.7189V53.226Z" fill="#575A89"/>
<path d="M170.471 35.8014L167.668 36.5429L166.466 51.3724L164.464 64.3482L154.852 80.2899C154.852 80.2899 159.658 77.324 161.661 85.851L172.246 68.7907L170.471 35.8014Z" fill="#575A89"/>
<path d="M201.709 77.6948C201.709 77.6948 190.495 85.851 196.102 87.7047C201.709 89.5584 205.313 81.0314 205.313 81.0314L201.709 77.6948Z" fill="#E9C1A1"/>
<path d="M208.517 81.7729L204.913 85.851L200.107 78.0655L202.109 74.7289L208.517 81.7729Z" fill="#CFCCE0"/>
<path d="M207.716 29.8696L210.92 28.3866C210.92 28.3866 213.323 31.3525 213.723 33.9477C214.124 36.5429 216.126 39.8795 216.126 41.7332C216.126 43.5869 221.733 61.0115 221.733 61.0115L208.918 85.1095C208.918 85.1095 206.114 76.2118 200.107 75.4703L210.119 62.4945L204.512 53.2261L207.716 29.8696Z" fill="#575A89"/>
<path d="M189.666 6.20922L191.554 5.50951C191.554 5.50951 187.606 1.48618 182.114 1.83605L183.659 0.261685C183.659 0.261685 179.883 -1.13772 176.45 2.53574C174.645 4.46679 172.558 6.73666 171.256 9.29363H169.234L170.078 11.0137L167.124 12.7339L170.156 12.4249C169.975 13.3668 169.948 14.3285 170.074 15.278C170.204 16.2278 170.727 17.0937 171.534 17.693C171.534 17.693 173.875 13.2063 173.875 12.5066V14.2559C173.875 14.2559 175.763 12.6815 175.763 11.632L176.793 12.8565L177.308 10.9322L183.659 12.8565L182.629 11.2821L186.576 11.8069L185.032 9.88267C185.032 9.88267 189.494 12.1567 189.666 14.0809C189.838 16.0051 191.144 17.8284 191.144 17.8284C191.144 17.8284 194.643 8.83312 189.666 6.20922Z" fill="#2F2E41"/>
<path d="M189.494 14.8547C190.113 14.8547 190.615 14.2737 190.615 13.5571C190.615 12.8405 190.113 12.2595 189.494 12.2595C188.875 12.2595 188.373 12.8405 188.373 13.5571C188.373 14.2737 188.875 14.8547 189.494 14.8547Z" fill="#E9C1A1"/>
</svg>
