<svg width="94" height="76" viewBox="0 0 94 76" fill="none" xmlns="http://www.w3.org/2000/svg">
<path d="M70.7727 65.67L46.9997 70.8224L23.2264 65.67L17.7405 17.8315H76.2592L70.7727 65.67Z" fill="#2062AF"/>
<path d="M46.9995 21.7064V66.713L47.0532 66.7248L66.2917 62.5549L70.7323 21.7064H46.9995Z" fill="#3C9CD7"/>
<path d="M33.5075 10.8031V7.95575H38.6686V4.84009H29.6367V13.6462H38.6686V10.8031H33.5075ZM47.9528 7.95575H51.561V4.84009H42.5283V7.95575C43.7368 8.92847 44.367 9.39403 46.1148 10.8008C45.0931 10.8008 42.5283 10.8038 42.5283 10.8037V13.6462H51.561V10.8031L47.9528 7.95575ZM60.755 7.95575H64.3631V4.84009H55.3301V7.95575C56.5385 8.92847 57.1691 9.39403 58.9169 10.8008C57.8955 10.8008 55.3301 10.8038 55.3301 10.8037V13.6462H64.3633V10.8031L60.755 7.95575Z" fill="black"/>
<path d="M46.9784 33.6679L29.9633 39.3719L30.5275 45.0192L46.9784 39.3576L64.4778 33.3353L65.2033 27.5583L46.9784 33.6679Z" fill="white"/>
<path d="M29.9631 39.3719L30.5273 45.0192L46.9782 39.3575V33.6679L29.9631 39.3719Z" fill="url(#paint0_linear_16_334)"/>
<path d="M65.2034 27.5584L46.9784 33.6679V39.3576L64.4778 33.3353L65.2034 27.5584Z" fill="url(#paint1_linear_16_334)"/>
<path d="M29.9893 39.3719L30.5537 45.0192L55.7953 45.084L55.2307 52.6137L46.9248 54.4959L38.9403 52.8731L38.4565 48.1995H31.0375L32.0053 57.2221L47.0054 60.7921L61.9242 57.2869L63.8598 39.3719H29.9893Z" fill="url(#paint2_linear_16_334)"/>
<path opacity="0.05" d="M46.9784 39.3719H29.9633L30.5275 45.0192L46.9784 45.0615V39.3719ZM46.9784 54.4779L46.8977 54.496L38.9143 52.8733L38.4305 48.1996H31.0117L31.9793 57.2223L46.9784 60.7922V54.4779Z" fill="black"/>
<path d="M28.4309 27.5584H65.2034L64.4778 33.3354H29.3179L28.4309 27.5584Z" fill="url(#paint3_linear_16_334)"/>
<path opacity="0.05" d="M46.9784 27.5584H28.4309L29.3179 33.3354H46.9784V27.5584Z" fill="black"/>
<defs>
<linearGradient id="paint0_linear_16_334" x1="38.4706" y1="45.0193" x2="38.4706" y2="33.668" gradientUnits="userSpaceOnUse">
<stop offset="0.387" stop-color="#D1D3D4" stop-opacity="0"/>
<stop offset="1" stop-color="#D1D3D4"/>
</linearGradient>
<linearGradient id="paint1_linear_16_334" x1="56.0907" y1="39.3577" x2="56.0907" y2="27.5586" gradientUnits="userSpaceOnUse">
<stop offset="0.387" stop-color="#D1D3D4" stop-opacity="0"/>
<stop offset="1" stop-color="#D1D3D4"/>
</linearGradient>
<linearGradient id="paint2_linear_16_334" x1="29.9893" y1="50.0821" x2="63.8596" y2="50.0821" gradientUnits="userSpaceOnUse">
<stop stop-color="#E8E7E5"/>
<stop offset="1" stop-color="white"/>
</linearGradient>
<linearGradient id="paint3_linear_16_334" x1="28.4309" y1="30.4469" x2="65.2032" y2="30.4469" gradientUnits="userSpaceOnUse">
<stop stop-color="#E8E7E5"/>
<stop offset="1" stop-color="white"/>
</linearGradient>
</defs>
</svg>
